<svg version="1.1" viewBox="0.0 0.0 607.6902887139107 133.53280839895012" fill="none" stroke="none" stroke-linecap="square" stroke-miterlimit="10" xmlns:xlink="http://www.w3.org/1999/xlink" xmlns="http://www.w3.org/2000/svg"><clipPath id="p.0"><path d="m0 0l607.6903 0l0 133.5328l-607.6903 0l0 -133.5328z" clip-rule="nonzero"/></clipPath><g clip-path="url(#p.0)"><path fill="#000000" fill-opacity="0.0" d="m0 0l607.6903 0l0 133.5328l-607.6903 0z" fill-rule="evenodd"/><path fill="#0c343d" d="m98.61893 7.5239334c-20.526863 0 -37.25565 16.582457 -37.25565 37.25638c0 20.600029 16.801952 37.255653 37.328815 37.255653c20.527596 0 37.25638 -16.72879 37.25638 -37.255653c0 -20.527592 -16.801949 -37.25638 -37.329544 -37.25638z" fill-rule="evenodd"/><path fill="#134f5c" d="m7.244095E-4 -5.0761155E-4l11.46885 30.170204l-11.46885 30.097038l11.46885 30.170208l-11.46885 30.097038l7.013008 2.702774l38.27852 -38.278526l6.8666763 1.095314l8.254646 -8.327812c-4.894108 -5.624321 -8.546581 -12.491722 -10.51915 -20.015434l3.8712463 -3.1417656c-0.65703964 -3.141037 -0.9489784 -6.3552437 -0.9489784 -9.715778c0 -16.509293 8.83852 -31.119183 21.988003 -39.155056l-14.609894 -5.551874l-30.170202 11.46885l-30.023874 -11.615181z" fill-rule="evenodd"/><path fill="#45818e" d="m128.05893 79.99096c-7.9627075 6.7203445 -18.189919 10.592316 -29.366837 10.592316c-3.2873688 0 -6.5747375 -0.36582947 -9.642616 -0.94970703l-3.214203 3.8712463c-7.086174 -1.8993988 -13.587746 -5.2592087 -19.138893 -9.861382l-8.620476 8.692909l1.0960312 6.4284134l-32.069603 31.996445l3.141039 1.2416382l30.097038 -11.542023l30.170204 11.542023l30.097038 -11.542023l11.542023 -30.097038l-4.090744 -10.372818z" fill-rule="evenodd"/><path fill="#45818e" d="m128.05893 79.99096c-7.9627075 6.7203445 -18.189919 10.592316 -29.366837 10.592316c-3.2873688 0 -6.5747375 -0.36582947 -9.642616 -0.94970703l-3.214203 3.8712463l-19.138893 -10.080879l-8.620476 8.839241l1.0960312 6.3552475l31.338676 4.7485046l-0.07316589 28.63591l30.097038 -11.542023l11.542023 -30.097038l-4.017578 -10.372818z" fill-rule="evenodd"/><path fill="#ff5a00" d="m98.71456 30.28751l-19.32608 19.32442l4.950424 4.9500046l10.796532 -10.735264l0 26.958828l7.0387497 0l0 -26.958828l10.796532 10.735264l4.9516144 -4.9500046l-19.207771 -19.32442z" fill-rule="evenodd"/><path fill="#ff5a00" d="m79.56714 18.775541l0 7.4557667l38.17653 0l0 -7.4557667z" fill-rule="evenodd"/><path fill="#0c343d" d="m154.05774 48.10499l0 6.401573l9.244095 0l0 29.154854l8.296585 0l0 -29.154854l9.244095 0l0 -6.401573z" fill-rule="evenodd"/><path fill="#0c343d" d="m195.06561 57.824146l3.556427 12.56168l-7.3490753 0l3.556427 -12.56168zm-4.503937 -9.719158l-11.377945 35.556427l8.296585 0l1.897644 -6.874016l11.139099 0l2.1338654 6.874016l8.060364 0l-11.37796 -35.556427z" fill-rule="evenodd"/><path fill="#0c343d" d="m226.82939 47.868767c-7.821518 0 -13.51181 3.7926521 -13.51181 9.719158c0 6.162731 4.0288696 8.769032 13.036743 11.614178c4.503937 1.6587906 5.6902924 2.6062927 5.6902924 5.2152176c0 2.1312332 -1.4225769 3.5538101 -4.979004 3.5538101c-4.503937 0 -6.6351624 -1.6587982 -6.6351624 -5.687668l-8.060379 0l0 0.23622131c-0.23620605 7.5853043 6.637802 11.614174 14.695541 11.614174c8.060379 0 13.275589 -3.5538025 13.275589 -9.955383c0 -6.1627274 -4.0288696 -9.244095 -12.089233 -11.61417c-5.215225 -1.8950119 -6.874008 -2.8451424 -6.874008 -4.740158c0 -2.1338577 2.13385 -3.7926483 5.4514313 -3.7926483c3.3175964 0 5.4514465 1.8950119 5.4514465 4.7401543l7.8241425 0l0 -0.2362175c0.23622131 -6.401577 -5.21521 -10.666668 -13.275589 -10.666668z" fill-rule="evenodd"/><path fill="#0c343d" d="m244.84514 48.10499l0 35.556427l8.2966 0l0 -14.223091l3.7926483 0l7.821533 14.223091l9.955353 0l-11.850372 -19.438316l10.902893 -16.11811l-10.194244 0l-7.821518 13.984249l-2.6062927 0l0 -13.984249z" fill-rule="evenodd"/><path fill="#0c343d" d="m277.55643 48.10499l0 35.556427l8.2966 0l0 -35.556427z" fill-rule="evenodd"/><path fill="#0c343d" d="m292.01575 48.10499l0 35.556427l8.060364 0l0 -22.519684l0.23623657 0l13.036743 22.519684l8.060364 0l0 -35.556427l-8.060364 0l0 22.519684l-0.23623657 0.23622131l-13.036743 -22.755905z" fill-rule="evenodd"/><path fill="#0c343d" d="m340.60892 47.868767c-8.29657 0 -14.2230835 5.687664 -14.2230835 14.459316l0 7.3464546c0 8.535439 5.9265137 14.45932 14.698151 14.45932c6.8740234 0 11.37796 -2.6063004 13.984253 -5.4514465l0 -13.2729645l-13.984253 0l0 5.4514465l5.687683 0l0 5.68766c-0.94750977 0.71128845 -2.6063232 1.1863556 -5.687683 1.1863556c-4.031494 0 -6.401581 -3.0813675 -6.401581 -8.060371l0 -7.5853004c0 -4.7401543 2.3700867 -8.057739 6.1653748 -8.057739c4.0288696 0 5.6876526 1.8950119 6.1627197 5.687664l7.821533 0l0 -0.23622131c-0.7113037 -7.349083 -4.979004 -11.614174 -14.223114 -11.614174z" fill-rule="evenodd"/><path fill="#0c343d" d="m374.0315 48.10499l0 35.556427l8.2966 0l0 -8.771652l-0.94750977 -16.11811l0.23620605 0l8.535431 24.889763l5.4514465 0l8.532806 -25.12598l0.23623657 0.2362175l-0.94750977 16.11811l0 8.771652l8.29657 0l0 -35.556427l-10.902863 0l-8.060364 24.889763l-8.060394 -24.889763z" fill-rule="evenodd"/><path fill="#0c343d" d="m430.68503 57.824146l3.556427 12.56168l-7.34906 0l3.556427 -12.56168zm-4.503937 -9.719158l-11.37793 35.556427l8.060364 0l2.13385 -6.874016l11.139099 0l1.897644 6.874016l8.2966 0l-11.37796 -35.556427z" fill-rule="evenodd"/><path fill="#0c343d" d="m448.937 48.10499l0 35.556427l8.29657 0l0 -22.519684l13.036774 22.519684l8.29657 0l0 -35.556427l-8.29657 0l0 22.519684l0 0.23622131l-13.036774 -22.755905z" fill-rule="evenodd"/><path fill="#0c343d" d="m497.29398 57.824146l3.792633 12.56168l-7.5852966 0l3.7926636 -12.56168zm-4.503937 -9.719158l-11.37796 35.556427l8.29657 0l2.1338806 -6.874016l11.141724 0l1.8950195 6.874016l8.29657 0l-11.37793 -35.556427z" fill-rule="evenodd"/><path fill="#0c343d" d="m529.29395 47.868767c-8.29657 0 -14.2230835 5.687664 -14.2230835 14.459316l0 7.3464546c0 8.535439 5.9265137 14.45932 14.698181 14.45932c7.1102295 0 11.37793 -2.6063004 13.984253 -5.4514465l0 -13.2729645l-13.984253 0l0 5.4514465l5.687622 0l0 5.68766c-0.94744873 0.71128845 -2.6062622 1.1863556 -5.687622 1.1863556c-4.0288696 0 -6.4016113 -3.0813675 -6.4016113 -8.060371l0 -7.5853004c0 -4.7401543 2.3727417 -8.057739 6.1654053 -8.057739c4.0288696 0 5.687622 1.8950119 6.1627197 5.687664l7.821533 0l0 -0.23622131c-0.7113037 -7.349083 -4.979004 -11.614174 -14.223145 -11.614174z" fill-rule="evenodd"/><path fill="#0c343d" d="m548.7323 48.10499l0 35.556427l24.414673 0l0 -6.401573l-16.118103 0l0 -8.769028l13.748047 0l0 -6.401577l-13.748047 0l0 -7.582676l16.35431 0l0 -6.401573z" fill-rule="evenodd"/><path fill="#0c343d" d="m590.6877 54.50656c3.3201904 0 4.979004 1.8950119 4.979004 4.740158c0 2.8425179 -1.6588135 4.503937 -4.979004 4.503937l-5.451477 0l0 -9.244095zm-13.748047 -6.401573l0 35.320206l8.29657 0l0 -13.51181l5.6903076 0.23622131c3.317566 0 5.2125854 1.6587906 5.2125854 4.979004l0 2.1312332c0 2.3727036 0.23883057 5.215225 1.661438 6.401573l8.29657 0l0 -0.47506714c-1.1863403 -1.1837234 -1.661438 -4.0288696 -1.661438 -5.926506l0 -2.1312332c0 -4.2677155 -1.8949585 -7.1128616 -6.1627197 -8.535431c3.7926636 -1.6587982 5.6903076 -4.0288734 5.6903076 -7.8215256c0 -6.6377945 -5.21521 -10.666664 -13.275574 -10.666664z" fill-rule="evenodd"/></g></svg>